<svg xmlns="http://www.w3.org/2000/svg" xmlns:xlink="http://www.w3.org/1999/xlink" width="300" zoomAndPan="magnify" viewBox="0 0 224.87999 225" height="300" preserveAspectRatio="xMidYMid meet" version="1.2"><defs><clipPath id="49560f6cb9"><path d="M 3.285156 3.800781 L 221.421875 3.800781 L 221.421875 221.1875 L 3.285156 221.1875 Z M 3.285156 3.800781 "/></clipPath></defs><g id="b09ee001b8"><g clip-rule="nonzero" clip-path="url(#49560f6cb9)"><path style=" stroke:none;fill-rule:nonzero;fill:#ffffff;fill-opacity:1;" d="M 69.382812 48.859375 C 70.925781 50.023438 71.214844 52.230469 70.035156 53.769531 C 68.871094 55.292969 66.664062 55.597656 65.125 54.417969 L 47.71875 41.082031 C 45.84375 39.652344 45.925781 36.851562 47.769531 35.472656 L 65.125 22.179688 C 66.664062 21 68.863281 21.304688 70.035156 22.84375 C 71.214844 24.367188 70.925781 26.574219 69.382812 27.753906 L 55.601562 38.296875 Z M 92.960938 21.328125 C 93.929688 19.640625 96.078125 19.070312 97.75 20.054688 C 99.421875 21.023438 99.992188 23.15625 99.023438 24.828125 L 81.457031 55.265625 C 80.472656 56.953125 78.339844 57.523438 76.667969 56.554688 C 74.996094 55.585938 74.425781 53.4375 75.394531 51.765625 Z M 109.285156 54.417969 C 107.757812 55.597656 105.550781 55.292969 104.375 53.769531 C 103.207031 52.230469 103.496094 50.027344 105.039062 48.859375 L 118.808594 38.296875 L 105.039062 27.75 C 103.496094 26.570312 103.207031 24.363281 104.375 22.839844 C 105.550781 21.296875 107.757812 20.992188 109.285156 22.171875 L 126.652344 35.46875 C 128.496094 36.847656 128.578125 39.648438 126.703125 41.078125 Z M 26.460938 150.972656 C 24.523438 150.972656 22.949219 149.410156 22.949219 147.472656 C 22.949219 145.535156 24.523438 143.957031 26.460938 143.957031 L 49.230469 143.957031 C 51.167969 143.957031 52.746094 145.535156 52.746094 147.472656 C 52.746094 149.410156 51.167969 150.972656 49.230469 150.972656 Z M 26.460938 131.691406 C 24.523438 131.691406 22.949219 130.128906 22.949219 128.191406 C 22.949219 126.238281 24.523438 124.675781 26.460938 124.675781 L 72 124.675781 C 73.9375 124.675781 75.515625 126.238281 75.515625 128.191406 C 75.515625 130.128906 73.9375 131.691406 72 131.691406 Z M 26.460938 112.414062 C 24.523438 112.414062 22.949219 110.851562 22.949219 108.898438 C 22.949219 106.960938 24.523438 105.398438 26.460938 105.398438 L 72 105.398438 C 73.9375 105.398438 75.515625 106.960938 75.515625 108.898438 C 75.515625 110.851562 73.9375 112.414062 72 112.414062 Z M 26.460938 93.132812 C 24.523438 93.132812 22.949219 91.554688 22.949219 89.617188 C 22.949219 87.679688 24.523438 86.117188 26.460938 86.117188 L 72 86.117188 C 73.9375 86.117188 75.515625 87.683594 75.515625 89.617188 C 75.515625 91.550781 73.9375 93.132812 72 93.132812 Z M 6.90625 3.800781 L 167.515625 3.800781 C 169.453125 3.800781 171.015625 5.378906 171.015625 7.316406 L 171.015625 157.140625 L 174.414062 157.140625 C 176.46875 141.273438 191.332031 130.289062 207.148438 132.914062 C 208.6875 133.183594 209.828125 134.414062 210.039062 135.875 C 210.878906 141.328125 210.308594 146.570312 208.128906 151.636719 C 213.054688 153.667969 217.300781 157.054688 220.390625 161.386719 C 221.292969 162.660156 221.226562 164.332031 220.339844 165.527344 C 213.53125 174.773438 202.292969 179.191406 191.082031 176.632812 C 180.800781 203.144531 155.207031 221.015625 126.292969 221.015625 C 105.15625 221.015625 85.917969 211.542969 72.992188 196.101562 L 6.90625 196.101562 C 4.96875 196.101562 3.40625 194.535156 3.40625 192.597656 L 3.40625 7.316406 C 3.402344 5.378906 4.96875 3.800781 6.90625 3.800781 Z M 164 10.832031 L 10.421875 10.832031 L 10.421875 65.761719 L 164 65.761719 Z M 105.023438 79.652344 L 133.546875 79.652344 C 135.484375 79.652344 137.0625 81.214844 137.0625 83.167969 L 137.0625 111.691406 C 137.0625 113.628906 135.484375 115.195312 133.546875 115.195312 L 105.023438 115.195312 C 103.085938 115.195312 101.507812 113.628906 101.507812 111.691406 L 101.507812 83.167969 C 101.507812 81.222656 103.085938 79.652344 105.023438 79.652344 Z M 130.046875 86.675781 L 108.539062 86.675781 L 108.539062 108.183594 L 130.046875 108.183594 Z M 125.070312 118.71875 L 153.59375 118.71875 C 155.535156 118.71875 157.109375 120.296875 157.109375 122.234375 L 157.109375 150.757812 C 157.109375 152.695312 155.535156 154.273438 153.59375 154.273438 L 125.070312 154.273438 C 123.132812 154.273438 121.570312 152.695312 121.570312 150.757812 L 121.570312 122.234375 C 121.570312 120.296875 123.132812 118.71875 125.070312 118.71875 Z M 150.09375 125.75 L 128.585938 125.75 L 128.585938 147.257812 L 150.09375 147.257812 Z M 84.976562 118.71875 L 113.5 118.71875 C 115.4375 118.71875 117.015625 120.296875 117.015625 122.234375 L 117.015625 150.757812 C 117.015625 152.695312 115.4375 154.273438 113.5 154.273438 L 84.976562 154.273438 C 83.039062 154.273438 81.460938 152.695312 81.460938 150.757812 L 81.460938 122.234375 C 81.457031 120.296875 83.039062 118.71875 84.976562 118.71875 Z M 109.984375 125.75 L 88.476562 125.75 L 88.476562 147.257812 L 109.984375 147.257812 Z M 67.816406 189.078125 C 62.480469 180.796875 58.863281 171.324219 57.453125 161.136719 C 57.164062 159.039062 58.820312 157.15625 60.917969 157.140625 L 163.996094 157.140625 L 163.996094 72.796875 L 10.421875 72.796875 L 10.421875 189.078125 Z M 162.777344 202.242188 C 173.289062 194.675781 181.34375 183.929688 185.53125 171.417969 C 186.167969 169.375 188.214844 168.378906 190.109375 169.070312 C 198.152344 171.976562 207.242188 169.746094 213.035156 163.414062 C 210.1875 160.3125 206.453125 158.078125 202.289062 157.101562 L 202.304688 157.085938 C 199.996094 156.542969 198.855469 153.875 200.140625 151.820312 C 202.449219 148.160156 203.5625 143.84375 203.378906 139.5625 C 191.28125 139.03125 181.183594 148.78125 181.183594 160.644531 C 181.183594 162.59375 179.621094 164.160156 177.667969 164.160156 L 65.074219 164.160156 C 70.976562 192.855469 96.375 213.980469 126.292969 213.980469 C 139.933594 213.980469 152.523438 209.632812 162.777344 202.242188 Z M 162.777344 202.242188 "/></g><path style="fill:none;stroke-width:4;stroke-linecap:butt;stroke-linejoin:miter;stroke:#000000;stroke-opacity:1;stroke-miterlimit:4;" d="M -0.00244821 1.998559 L 9.245177 1.998143 " transform="matrix(0.0396733,0.729497,-0.729497,0.0396733,198.161164,92.285778)"/></g></svg>