<svg xmlns="http://www.w3.org/2000/svg" xmlns:xlink="http://www.w3.org/1999/xlink" width="300" zoomAndPan="magnify" viewBox="0 0 224.87999 225" height="300" preserveAspectRatio="xMidYMid meet" version="1.2"><defs><clipPath id="e24922ecfe"><path d="M 3.285156 3.800781 L 221.421875 3.800781 L 221.421875 221.1875 L 3.285156 221.1875 Z M 3.285156 3.800781 "/></clipPath></defs><g id="6804ab80a8"><g clip-rule="nonzero" clip-path="url(#e24922ecfe)"><path style=" stroke:none;fill-rule:nonzero;fill:#000000;fill-opacity:1;" d="M 69.382812 48.890625 C 70.925781 50.054688 71.214844 52.261719 70.035156 53.804688 C 68.871094 55.332031 66.664062 55.636719 65.125 54.453125 L 47.71875 41.109375 C 45.84375 39.675781 45.925781 36.875 47.769531 35.492188 L 65.125 22.191406 C 66.664062 21.011719 68.863281 21.316406 70.035156 22.855469 C 71.214844 24.382812 70.925781 26.589844 69.382812 27.769531 L 55.601562 38.324219 Z M 92.960938 21.339844 C 93.929688 19.652344 96.078125 19.082031 97.75 20.066406 C 99.421875 21.035156 99.992188 23.171875 99.023438 24.84375 L 81.457031 55.300781 C 80.472656 56.988281 78.339844 57.558594 76.667969 56.589844 C 74.996094 55.621094 74.425781 53.472656 75.394531 51.796875 Z M 109.285156 54.453125 C 107.757812 55.636719 105.550781 55.332031 104.375 53.804688 C 103.207031 52.261719 103.496094 50.0625 105.039062 48.890625 L 118.808594 38.324219 L 105.039062 27.765625 C 103.496094 26.585938 103.207031 24.378906 104.375 22.851562 C 105.550781 21.3125 107.757812 21.007812 109.285156 22.1875 L 126.652344 35.488281 C 128.496094 36.871094 128.578125 39.671875 126.703125 41.105469 Z M 26.460938 151.074219 C 24.523438 151.074219 22.949219 149.511719 22.949219 147.570312 C 22.949219 145.632812 24.523438 144.054688 26.460938 144.054688 L 49.230469 144.054688 C 51.167969 144.054688 52.746094 145.632812 52.746094 147.570312 C 52.746094 149.511719 51.167969 151.074219 49.230469 151.074219 Z M 26.460938 131.78125 C 24.523438 131.78125 22.949219 130.21875 22.949219 128.277344 C 22.949219 126.324219 24.523438 124.761719 26.460938 124.761719 L 72 124.761719 C 73.9375 124.761719 75.515625 126.324219 75.515625 128.277344 C 75.515625 130.21875 73.9375 131.78125 72 131.78125 Z M 26.460938 112.488281 C 24.523438 112.488281 22.949219 110.925781 22.949219 108.972656 C 22.949219 107.03125 24.523438 105.46875 26.460938 105.46875 L 72 105.46875 C 73.9375 105.46875 75.515625 107.03125 75.515625 108.972656 C 75.515625 110.925781 73.9375 112.488281 72 112.488281 Z M 26.460938 93.195312 C 24.523438 93.195312 22.949219 91.617188 22.949219 89.679688 C 22.949219 87.738281 24.523438 86.175781 26.460938 86.175781 L 72 86.175781 C 73.9375 86.175781 75.515625 87.742188 75.515625 89.679688 C 75.515625 91.613281 73.9375 93.195312 72 93.195312 Z M 6.90625 3.800781 L 167.515625 3.800781 C 169.453125 3.800781 171.015625 5.378906 171.015625 7.320312 L 171.015625 157.25 L 174.414062 157.25 C 176.46875 141.371094 191.332031 130.378906 207.148438 133.003906 C 208.6875 133.273438 209.828125 134.503906 210.039062 135.964844 C 210.878906 141.421875 210.308594 146.667969 208.128906 151.742188 C 213.054688 153.773438 217.300781 157.160156 220.390625 161.496094 C 221.292969 162.773438 221.226562 164.445312 220.339844 165.636719 C 213.53125 174.894531 202.292969 179.316406 191.082031 176.753906 C 180.800781 203.285156 155.207031 221.167969 126.292969 221.167969 C 105.15625 221.167969 85.917969 211.6875 72.992188 196.234375 L 6.90625 196.234375 C 4.96875 196.234375 3.40625 194.667969 3.40625 192.730469 L 3.40625 7.320312 C 3.402344 5.378906 4.96875 3.800781 6.90625 3.800781 Z M 164 10.835938 L 10.421875 10.835938 L 10.421875 65.804688 L 164 65.804688 Z M 105.023438 79.707031 L 133.546875 79.707031 C 135.484375 79.707031 137.0625 81.269531 137.0625 83.222656 L 137.0625 111.769531 C 137.0625 113.707031 135.484375 115.269531 133.546875 115.269531 L 105.023438 115.269531 C 103.085938 115.269531 101.507812 113.707031 101.507812 111.769531 L 101.507812 83.222656 C 101.507812 81.273438 103.085938 79.707031 105.023438 79.707031 Z M 130.046875 86.730469 L 108.539062 86.730469 L 108.539062 108.253906 L 130.046875 108.253906 Z M 125.070312 118.796875 L 153.59375 118.796875 C 155.535156 118.796875 157.109375 120.378906 157.109375 122.316406 L 157.109375 150.859375 C 157.109375 152.800781 155.535156 154.378906 153.59375 154.378906 L 125.070312 154.378906 C 123.132812 154.378906 121.570312 152.800781 121.570312 150.859375 L 121.570312 122.316406 C 121.570312 120.378906 123.132812 118.796875 125.070312 118.796875 Z M 150.09375 125.832031 L 128.585938 125.832031 L 128.585938 147.355469 L 150.09375 147.355469 Z M 84.976562 118.796875 L 113.5 118.796875 C 115.4375 118.796875 117.015625 120.378906 117.015625 122.316406 L 117.015625 150.859375 C 117.015625 152.800781 115.4375 154.378906 113.5 154.378906 L 84.976562 154.378906 C 83.039062 154.378906 81.460938 152.800781 81.460938 150.859375 L 81.460938 122.316406 C 81.457031 120.378906 83.039062 118.796875 84.976562 118.796875 Z M 109.984375 125.832031 L 88.476562 125.832031 L 88.476562 147.355469 L 109.984375 147.355469 Z M 67.816406 189.207031 C 62.480469 180.921875 58.863281 171.441406 57.453125 161.246094 C 57.164062 159.144531 58.820312 157.261719 60.917969 157.25 L 163.996094 157.25 L 163.996094 72.84375 L 10.421875 72.84375 L 10.421875 189.207031 Z M 162.777344 202.378906 C 173.289062 194.808594 181.34375 184.054688 185.53125 171.535156 C 186.167969 169.488281 188.214844 168.496094 190.109375 169.183594 C 198.152344 172.09375 207.242188 169.863281 213.035156 163.527344 C 210.1875 160.421875 206.453125 158.1875 202.289062 157.207031 L 202.304688 157.191406 C 199.996094 156.648438 198.855469 153.980469 200.140625 151.921875 C 202.449219 148.261719 203.5625 143.941406 203.378906 139.65625 C 191.28125 139.128906 181.183594 148.882812 181.183594 160.753906 C 181.183594 162.707031 179.621094 164.269531 177.667969 164.269531 L 65.074219 164.269531 C 70.976562 192.988281 96.375 214.128906 126.292969 214.128906 C 139.933594 214.128906 152.523438 209.777344 162.777344 202.378906 Z M 162.777344 202.378906 "/></g><path style="fill:none;stroke-width:4;stroke-linecap:butt;stroke-linejoin:miter;stroke:#ffffff;stroke-opacity:1;stroke-miterlimit:4;" d="M -0.00244821 1.998559 L 9.245177 1.998143 " transform="matrix(0.0396733,0.729497,-0.729497,0.0396733,198.161164,92.285778)"/></g></svg>